<svg id="Layer_1" enable-background="new 0 0 512 512" height="32" viewBox="0 0 512 512" width="32" xmlns="http://www.w3.org/2000/svg"><g id="XMLID_1_"><g id="XMLID_4219_"><path id="XMLID_1588_" d="m455 383-38 32h-57l-33-32 14-232 28-32h46l26 32z" fill="#c4c1ab"/><path id="XMLID_1582_" d="m474.6 415-40.6 60h-98.5l-28.1-60 12-32h143.2z" fill="#747e6c"/><path id="XMLID_2535_" d="m327 383h38.3l6.9-187.8c.5-12.4 10.6-22.2 23-22.2h47.1l-1.3-22-26-32h-46l-28 32z" fill="#747e6c"/><path id="XMLID_1586_" d="m204.6 415v60h-167.2v-60l12-32v-28h143.2v28z" fill="#323d2c"/><path id="XMLID_1578_" d="m43.4 399h155.2l-5.6-16v-28h-144v28z" fill="#1c2617"/><path id="XMLID_1589_" d="m455 151h-135l-12-32 35-60h90.5l40.5 60z" fill="#c4c1ab"/><path id="XMLID_1587_" d="m21 415h200v92h-200z" fill="#485143"/><path id="XMLID_1415_" d="m21 415h200v92h-200z" fill="#485143"/><path id="XMLID_1577_" d="m21 415h39.3v92h-39.3z" fill="#323d2c"/><path id="XMLID_1585_" d="m439 5v50h-30v-50h-36v50h-30v-50h-35v114h166v-114z" fill="#ebeadf"/><path id="XMLID_1584_" d="m5 507h232v-16c0-8.8-7.2-16-16-16h-200c-8.8 0-16 7.2-16 16z" fill="#1c2617"/><path id="XMLID_1607_" d="m43.4 507h193.6v-16c0-8.8-7.2-16-16-16h-161.6c-8.8 0-16 7.2-16 16z" fill="#323d2c"/><path id="XMLID_1583_" d="m291 415h200v92h-200z" fill="#c4c1ab"/><path id="XMLID_1299_" d="m343 415h148v60h-148z" fill="#ebeadf"/><path id="XMLID_2501_" d="m474.6 415h-131.6l12.1-32h107.5z" fill="#c4c1ab"/><path id="XMLID_1581_" d="m275 507h232v-16c0-8.8-7.2-16-16-16h-200c-8.8 0-16 7.2-16 16z" fill="#747e6c"/><path id="XMLID_609_" d="m327 507h180v-16c0-8.8-7.2-16-16-16h-148c-8.8 0-16 7.2-16 16z" fill="#c4c1ab"/><path id="XMLID_1580_" d="m221 265.4h-108v-200c59.6 0 108 48.4 108 108z" fill="#485143"/><path id="XMLID_1579_" d="m192.6 383h-171.6v-44l44.8-110.4v-28.4h-60.8v-35l64.2-42 11.5-28.9h32.3c43.9 0 79.6 35.6 79.6 79.6z" fill="#323d2c"/><path id="XMLID_1414_" d="m65.8 200.2c14-.1 27.1-6.8 35.4-18l3.7-4.9v46.7l-44.6 113.7v45.3h-39.3v-44l44.8-110.4z" fill="#1c2617"/><path id="XMLID_1416_" d="m159.5 165.4c8.3 0 15 6.7 15 15v70c0 8.3-6.7 15-15 15-8.3 0-15-6.7-15-15v-70c0-8.3 6.7-15 15-15z" fill="#485143"/><g fill="#c4c1ab"><path id="XMLID_2531_" d="m373 5h18v50h-18z"/><path id="XMLID_2536_" d="m308 5h18v114h-18z"/><path id="XMLID_2537_" d="m439 5h17.5v50h-17.5z"/></g></g></g></svg>